<?xml version="1.0" standalone="no"?><svg xmlns="http://www.w3.org/2000/svg" viewBox="0 0 1440 320"><path fill="#f3f4f5" fill-opacity="1" d="M0,320L34.3,314.7C68.6,309,137,299,206,293.3C274.3,288,343,288,411,277.3C480,267,549,245,617,224C685.7,203,754,181,823,181.3C891.4,181,960,203,1029,213.3C1097.1,224,1166,224,1234,229.3C1302.9,235,1371,245,1406,250.7L1440,256L1440,320L1405.7,320C1371.4,320,1303,320,1234,320C1165.7,320,1097,320,1029,320C960,320,891,320,823,320C754.3,320,686,320,617,320C548.6,320,480,320,411,320C342.9,320,274,320,206,320C137.1,320,69,320,34,320L0,320Z"></path></svg>